<?xml version="1.0" standalone="no"?>
<!DOCTYPE svg PUBLIC "-//W3C//DTD SVG 20010904//EN"
 "http://www.w3.org/TR/2001/REC-SVG-20010904/DTD/svg10.dtd">
<svg version="1.0" xmlns="http://www.w3.org/2000/svg"
 width="1675.000000pt" height="1675.000000pt" viewBox="0 0 1675.000000 1675.000000"
 preserveAspectRatio="xMidYMid meet">

<g transform="translate(0.000000,1675.000000) scale(0.100000,-0.100000)"
fill="#000000" stroke="none">
<path d="M0 8375 l0 -8375 453 0 453 0 -1 158 c0 86 1 330 2 542 1 212 1 433
0 492 -1 101 0 108 23 128 31 27 64 25 205 -10 66 -17 140 -33 165 -36 25 -3
48 -8 52 -10 4 -3 87 -18 185 -35 98 -16 194 -34 213 -39 106 -28 354 -60 560
-74 263 -18 342 -23 514 -36 66 -5 122 -8 125 -8 4 1 18 -2 34 -5 15 -4 38 -9
52 -12 52 -11 62 -49 69 -248 6 -155 12 -460 15 -734 l1 -73 4769 0 4768 0 6
88 c4 48 8 134 9 192 l3 105 50 3 50 3 -4 -51 c-1 -28 -8 -54 -15 -56 -9 -3
-10 -19 -5 -57 4 -29 8 -91 8 -139 1 -73 4 -88 16 -88 13 0 16 16 15 103 0 56
5 125 12 152 6 28 12 69 12 93 l1 42 50 2 c28 1 59 2 70 2 11 1 26 5 33 9 6 5
16 6 20 3 5 -3 163 -8 353 -11 189 -3 371 -7 404 -9 33 -3 206 -7 385 -11 179
-3 339 -8 355 -10 17 -3 194 -7 394 -10 200 -3 367 -8 371 -10 7 -4 129 -8
815 -25 231 -5 480 -12 553 -15 l132 -5 0 4705 0 4705 -45 0 c-25 0 -45 -4
-45 -10 0 -5 -5 -10 -11 -10 -5 0 -8 4 -5 8 3 4 -21 6 -52 4 -31 -2 -58 -8
-60 -12 -2 -5 -15 -5 -28 1 -36 13 -82 11 -86 -3 -4 -10 -46 -13 -162 -15 -95
-1 -162 -6 -170 -12 -9 -8 -22 -8 -46 0 -20 7 -35 8 -39 2 -3 -5 -40 -10 -81
-10 -41 -1 -115 -4 -165 -7 -49 -4 -187 -11 -305 -16 -118 -6 -251 -12 -295
-15 -118 -7 -224 -13 -470 -25 -245 -12 -573 -28 -710 -36 -119 -6 -197 -14
-207 -20 -4 -3 -8 -1 -8 4 0 5 -17 7 -37 6 -38 -4 -424 -25 -453 -26 -8 0
-114 -4 -235 -9 -496 -20 -579 -25 -607 -40 -12 -6 -18 -6 -18 0 0 20 37 28
155 35 66 4 123 10 127 14 8 9 13 366 11 672 -2 124 -3 371 -3 550 -1 219 -5
327 -12 331 -6 4 -8 12 -4 17 5 9 8 210 5 372 -1 68 20 251 30 264 7 8 35 17
64 21 51 7 109 34 77 36 -24 1 40 19 105 29 33 6 114 14 180 20 66 5 170 14
230 19 61 6 155 13 210 16 55 3 147 10 205 15 58 6 173 15 255 20 242 17 550
38 690 49 72 6 175 13 230 16 55 3 109 8 120 10 11 3 97 9 190 15 94 6 256 17
360 25 396 31 443 35 555 40 63 4 122 8 130 10 8 2 83 9 165 15 83 7 168 13
190 15 22 2 48 4 58 4 24 1 24 67 0 73 -19 4 -233 -9 -435 -26 -15 -2 -34 -9
-43 -16 -12 -10 -15 -10 -15 0 0 10 -16 11 -67 6 -36 -4 -71 -10 -76 -13 -6
-3 -42 -5 -81 -5 -39 1 -102 -3 -141 -8 -38 -6 -146 -13 -240 -15 -144 -4
-303 -16 -430 -31 -16 -2 -91 -8 -165 -14 -74 -5 -160 -14 -191 -21 -31 -6
-66 -8 -78 -4 -11 3 -26 3 -32 -1 -7 -4 -45 -6 -86 -5 -40 1 -88 -2 -106 -8
-31 -9 -182 -20 -402 -27 -130 -4 -208 -11 -290 -23 -33 -5 -116 -12 -185 -14
-69 -3 -181 -10 -248 -16 -68 -6 -273 -20 -455 -31 -183 -11 -380 -24 -439
-28 -81 -6 -109 -4 -112 5 -8 19 -8 54 -6 2363 0 1202 1 2258 0 2348 l0 162
-6205 0 -6205 0 0 -8375z m7712 6321 c15 -17 27 -25 28 -17 0 25 26 -6 40 -49
9 -26 10 -44 4 -50 -6 -6 -8 -26 -6 -46 3 -26 11 -38 28 -44 13 -5 24 -15 24
-21 0 -6 9 -22 20 -36 11 -14 20 -41 20 -60 0 -19 5 -44 12 -56 6 -12 13 -29
14 -37 9 -51 24 -99 38 -125 9 -16 16 -44 16 -62 0 -17 5 -35 10 -38 6 -4 10
-30 10 -58 -2 -144 0 -196 11 -223 6 -16 13 -44 15 -63 2 -19 8 -37 13 -40 12
-8 16 -42 6 -63 -4 -10 -4 -26 1 -35 4 -10 6 -22 5 -27 -1 -4 4 -14 10 -22 7
-8 9 -17 6 -21 -4 -3 -2 -14 3 -24 8 -13 6 -21 -7 -28 -17 -10 -17 -12 0 -25
9 -7 17 -23 17 -35 0 -11 5 -21 10 -21 18 0 10 -28 -15 -51 -26 -25 -31 -39
-15 -39 5 0 21 -11 35 -25 25 -26 31 -57 19 -102 -6 -22 -77 -67 -88 -56 -3 3
-12 1 -19 -5 -8 -7 -17 -9 -20 -5 -13 13 -132 3 -143 -12 -8 -11 -18 -13 -35
-7 -17 7 -31 5 -47 -6 -14 -9 -49 -16 -81 -17 -82 -2 -188 -23 -217 -42 -23
-15 -27 -15 -41 0 -11 11 -21 13 -32 6 -17 -9 -72 -30 -81 -30 -3 0 -13 -7
-22 -16 -11 -10 -26 -13 -43 -9 -15 4 -25 2 -25 -4 0 -6 -4 -9 -10 -5 -11 7
-50 -24 -50 -40 0 -6 -13 -12 -30 -13 -16 -1 -30 2 -30 7 0 14 41 41 52 35 12
-8 -3 48 -16 61 -13 13 -60 -7 -48 -20 4 -4 0 -6 -9 -2 -9 3 -28 -1 -43 -8
-27 -14 -56 -11 -56 7 0 5 5 6 10 3 6 -3 10 3 10 14 0 12 -4 21 -9 21 -13 0
-32 -26 -24 -34 4 -4 -3 -9 -15 -13 -12 -3 -22 -13 -22 -23 0 -10 -9 -22 -20
-25 -11 -3 -20 -15 -20 -26 0 -13 -7 -19 -23 -19 -13 0 -27 -3 -31 -7 -14 -14
-61 -10 -73 6 -6 9 -19 16 -30 16 -11 0 -25 14 -36 38 -21 45 -41 55 -66 33
-18 -16 -20 -16 -38 7 -10 14 -27 26 -37 28 -33 7 -41 32 -26 83 11 40 16 46
39 46 15 0 32 -5 39 -12 9 -9 12 -9 12 -1 0 7 -4 15 -10 18 -17 10 -11 28 6
21 26 -10 54 3 54 26 0 19 2 20 18 6 9 -9 22 -13 29 -11 6 2 19 -9 27 -25 15
-28 46 -46 74 -42 8 1 20 -7 28 -17 12 -17 13 -16 14 8 0 29 23 54 40 44 5 -3
10 -1 10 4 0 6 -7 11 -15 11 -17 0 -20 25 -5 35 6 3 13 -1 16 -9 4 -9 17 -16
33 -15 22 0 23 2 7 8 -32 12 -30 55 5 124 6 10 5 17 -1 17 -13 0 -13 29 2 70
l11 33 22 -26 21 -27 1 55 c1 30 -3 55 -8 55 -20 0 -8 20 21 35 17 9 30 21 30
28 0 7 9 19 20 27 23 17 27 35 5 27 -19 -8 -30 10 -15 27 12 15 4 66 -11 66
-5 0 -9 20 -9 44 0 32 5 49 19 58 18 13 36 89 32 138 -1 23 0 24 12 8 17 -22
27 -23 27 -3 0 9 -11 20 -25 25 -14 5 -28 17 -31 25 -4 8 -12 15 -19 15 -18 0
-13 49 6 61 12 8 11 11 -3 20 -23 13 -23 25 2 56 11 14 20 35 21 47 0 19 1 19
7 3 7 -16 10 -14 29 12 12 16 25 41 29 55 5 22 3 26 -15 26 -22 0 -29 24 -11
35 6 3 10 15 10 26 0 11 7 19 16 19 11 0 14 -6 9 -22 -6 -22 -6 -22 9 -4 9 11
16 26 16 33 0 8 7 25 16 38 9 15 14 36 11 51 -3 18 2 33 14 45 18 18 19 18 19
1 0 -10 -5 -23 -12 -30 -19 -19 -6 -22 30 -7 24 11 32 20 32 40 0 14 5 25 10
25 6 0 10 9 10 20 0 11 -6 19 -12 18 -7 -2 -14 7 -16 20 -4 25 13 30 22 6 3
-8 11 -12 17 -8 8 4 7 9 -2 14 -19 12 7 40 36 40 13 0 25 7 29 15 3 8 15 15
26 15 12 0 34 7 51 15 21 12 34 13 48 5 11 -5 43 -10 71 -10 l52 0 -23 20
c-13 10 -20 19 -15 20 5 0 3 7 -4 15 -10 13 -3 14 57 8 60 -5 71 -10 95 -37z
m501 -1 c25 -2 52 -15 31 -15 -5 0 -10 -9 -11 -21 -2 -18 0 -18 18 5 26 33 41
33 33 2 -6 -24 -5 -24 61 -18 66 5 67 4 60 -17 -9 -28 12 -53 36 -46 15 5 19
1 19 -18 0 -14 7 -30 15 -37 8 -7 15 -18 15 -26 0 -7 16 -29 35 -50 20 -21 35
-47 35 -60 0 -13 4 -24 9 -24 5 0 12 -12 16 -27 3 -15 12 -31 18 -35 6 -3 12
-15 13 -25 13 -95 18 -110 44 -139 16 -18 31 -50 35 -73 4 -23 14 -49 23 -57
25 -25 52 -134 53 -216 0 -15 7 -32 14 -38 10 -8 11 -18 5 -35 -6 -15 -6 -27
0 -30 15 -9 11 -47 -5 -69 -8 -11 -15 -27 -15 -37 0 -9 -16 -27 -35 -40 -42
-29 -43 -41 -8 -68 14 -12 24 -23 21 -26 -6 -6 -58 18 -58 28 0 16 -30 6 -44
-15 -9 -12 -16 -17 -16 -10 0 18 -37 15 -44 -4 -3 -9 -7 -28 -7 -42 -1 -17 -3
-21 -6 -9 -5 19 -18 22 -28 7 -3 -5 0 -10 7 -10 8 0 6 -5 -5 -11 -21 -12 -47
-5 -47 12 0 6 9 13 20 16 20 5 28 23 10 23 -5 0 -10 5 -10 10 0 6 9 10 19 10
11 0 23 4 26 10 3 6 -1 7 -10 4 -10 -4 -22 1 -30 12 -14 18 -16 17 -19 -8 -2
-20 -26 -21 -24 -1 4 56 -24 81 -44 38 -12 -27 -31 -35 -22 -10 4 8 1 15 -4
15 -6 0 -12 17 -14 38 -2 22 -8 36 -15 35 -7 -2 -17 6 -23 17 -6 11 -7 20 -3
20 4 0 6 24 4 52 -3 39 -6 48 -12 33 -7 -19 -9 -18 -13 20 -1 6 -5 16 -9 23
-5 7 -6 21 -2 31 3 10 -1 37 -9 60 -7 23 -12 50 -9 60 3 10 0 22 -6 25 -6 4
-11 25 -11 46 0 21 -5 51 -11 67 -14 37 -20 143 -7 143 5 0 -4 12 -21 26 -27
22 -31 32 -31 74 0 29 -6 52 -14 59 -8 7 -16 31 -19 54 -2 23 -20 80 -41 127
-20 46 -36 87 -36 91 0 4 9 9 20 12 17 4 19 11 14 31 -8 31 3 49 25 40 9 -3
28 -7 44 -9z m647 -176 c0 -5 -4 -9 -10 -9 -5 0 -10 7 -10 16 0 8 5 12 10 9 6
-3 10 -10 10 -16z m50 -61 c0 -11 4 -17 9 -14 5 3 11 -1 14 -8 3 -8 1 -17 -6
-19 -9 -3 -9 -10 -1 -23 11 -21 8 -54 -6 -54 -5 0 -15 12 -23 28 -8 15 -22 41
-31 57 -18 34 -21 55 -6 55 6 0 10 7 10 17 0 14 2 14 20 -2 11 -10 20 -27 20
-37z m77 -169 c-4 -14 0 -19 14 -19 22 0 30 -43 15 -81 -5 -10 1 -19 16 -26
17 -8 24 -19 23 -39 0 -36 -18 -44 -25 -12 -3 13 -16 27 -28 33 -16 7 -20 15
-16 30 4 11 3 16 -2 12 -10 -10 -35 82 -27 106 4 16 1 18 -16 12 -12 -3 -21
-2 -21 4 0 14 32 19 53 8 12 -5 17 -16 14 -28z m-602 -719 c3 -5 1 -10 -4 -10
-6 0 -11 5 -11 10 0 6 2 10 4 10 3 0 8 -4 11 -10z m82 -92 c-1 -23 -8 -43 -14
-45 -14 -5 -13 38 1 70 13 27 16 20 13 -25z m150 -55 c-3 -10 -5 -4 -5 12 0
17 2 24 5 18 2 -7 2 -21 0 -30z m-126 4 c-6 -6 -12 -27 -12 -46 -2 -33 -2 -33
-6 -7 -6 38 5 79 18 70 8 -4 7 -10 0 -17z m209 13 c0 -5 -2 -10 -4 -10 -3 0
-8 5 -11 10 -3 6 -1 10 4 10 6 0 11 -4 11 -10z m65 -10 c3 -5 1 -10 -4 -10 -6
0 -11 5 -11 10 0 6 2 10 4 10 3 0 8 -4 11 -10z m-101 -39 c-6 -6 -24 19 -24
34 1 6 7 1 15 -9 8 -11 12 -22 9 -25z m-34 -12 c0 -5 5 -7 10 -4 13 8 13 -45
0 -65 -8 -12 -10 -11 -10 7 0 25 -15 39 -25 23 -7 -12 -25 -4 -25 11 0 5 9 9
21 9 15 0 19 5 15 15 -3 8 -1 15 4 15 6 0 10 -5 10 -11z m80 -49 c0 -5 -2 -10
-4 -10 -3 0 -8 5 -11 10 -3 6 -1 10 4 10 6 0 11 -4 11 -10z m-1810 -24 c0 -3
-4 -8 -10 -11 -5 -3 -10 -1 -10 4 0 6 5 11 10 11 6 0 10 -2 10 -4z m1715 -46
c3 -5 1 -10 -4 -10 -6 0 -11 5 -11 10 0 6 2 10 4 10 3 0 8 -4 11 -10z m-168
-102 c-3 -8 -6 -5 -6 6 -1 11 2 17 5 13 3 -3 4 -12 1 -19z m75 -20 c9 2 19 -2
23 -8 3 -5 15 -10 26 -10 13 0 19 -7 19 -21 0 -11 5 -29 10 -40 9 -15 6 -24
-15 -45 -23 -23 -27 -24 -47 -10 -12 9 -28 16 -35 16 -19 0 -59 43 -45 48 7 2
12 9 12 16 0 7 10 18 23 24 17 8 18 11 5 11 -10 1 -18 8 -18 17 0 10 4 12 13
7 6 -4 19 -6 29 -5z m125 -7 c7 -10 9 -22 6 -25 -6 -6 -32 23 -33 37 0 14 15
7 27 -12z m123 -11 c0 -5 -4 -10 -10 -10 -5 0 -10 5 -10 10 0 6 5 10 10 10 6
0 10 -4 10 -10z m-2290 -80 c0 -5 -7 -10 -15 -10 -8 0 -15 5 -15 10 0 6 7 10
15 10 8 0 15 -4 15 -10z m2175 -19 c-6 -5 -25 10 -25 20 0 5 6 4 14 -3 8 -7
12 -15 11 -17z m125 9 c0 -10 -32 -30 -49 -30 -6 0 -11 6 -11 14 0 13 9 17 53
25 4 0 7 -3 7 -9z m-48 -52 c8 8 19 6 38 -8 15 -11 30 -17 34 -13 11 11 6 21
-11 26 -11 3 -7 5 10 6 15 0 27 6 27 13 0 9 3 9 12 0 9 -9 9 -17 1 -34 -6 -13
-14 -36 -18 -51 -7 -32 -40 -35 -40 -3 0 11 -6 21 -12 23 -7 3 -13 -1 -13 -8
0 -8 -6 -5 -16 7 -8 10 -13 13 -9 7 3 -7 1 -13 -4 -13 -6 0 -11 7 -11 16 0 8
-4 13 -9 10 -11 -7 -23 52 -14 67 4 6 11 -3 16 -22 6 -24 11 -31 19 -23z
m1588 8 c0 -8 -10 -18 -22 -22 -12 -3 -51 -25 -87 -47 -36 -22 -79 -44 -96
-48 -16 -4 -41 -11 -54 -15 -51 -15 -13 22 60 58 76 39 110 59 119 69 17 21
80 24 80 5z m-1430 -53 c0 -38 -15 -25 -17 14 -1 26 1 33 7 23 6 -8 10 -25 10
-37z m-1780 21 c0 -2 -7 -4 -15 -4 -8 0 -15 4 -15 10 0 5 7 7 15 4 8 -4 15 -8
15 -10z m871 -40 c95 -28 162 -69 225 -136 32 -36 68 -82 79 -104 11 -21 22
-41 26 -44 3 -3 14 -20 24 -37 15 -25 17 -35 7 -45 -6 -6 -13 -10 -15 -7 -2 2
-27 38 -55 79 -66 94 -83 114 -156 173 -70 57 -117 82 -206 113 l-65 22 41 1
c22 1 65 -6 95 -15z m-1466 -63 c69 -32 150 -109 206 -194 21 -32 39 -63 41
-69 3 -7 16 -3 35 12 30 22 39 23 235 23 256 1 286 -8 271 -83 -6 -31 -21 -38
-39 -20 -6 6 -69 13 -141 17 l-131 5 5 -60 c4 -39 0 -86 -12 -138 -10 -44 -19
-86 -20 -94 -1 -8 -12 -44 -25 -80 -12 -36 -26 -94 -31 -130 -9 -66 -16 -105
-19 -105 -1 0 -4 -13 -6 -28 -3 -15 -18 -67 -34 -115 -17 -48 -30 -97 -30
-109 0 -14 -6 -23 -15 -23 -11 0 -14 11 -11 50 4 52 -5 62 -36 38 -21 -17 -32
-54 -19 -63 11 -6 -4 -43 -24 -57 -7 -5 -7 -10 0 -15 13 -10 17 -65 4 -58 -5
4 -6 -3 -1 -17 11 -32 7 -144 -5 -160 -12 -15 -23 -68 -14 -68 9 0 0 -104 -10
-114 -5 -6 -9 -23 -9 -39 0 -15 -4 -36 -10 -46 -5 -11 -6 -39 -1 -70 4 -28 4
-51 0 -51 -18 0 -8 -29 12 -35 19 -6 20 -13 18 -120 -2 -70 1 -118 8 -126 6
-8 16 -39 24 -69 7 -30 22 -68 34 -85 11 -16 26 -41 32 -55 41 -87 63 -143 63
-160 0 -10 5 -22 11 -26 6 -3 9 -15 6 -25 -3 -10 -1 -22 5 -25 5 -3 14 -17 19
-31 8 -23 13 -24 47 -18 20 3 43 14 49 23 20 25 54 121 66 187 6 33 22 75 34
94 13 19 23 39 23 45 0 6 29 72 65 145 36 74 64 140 61 148 -3 7 -21 14 -41
14 -19 1 -39 3 -45 4 -5 1 -26 3 -45 4 -28 1 -35 5 -35 21 0 11 -4 20 -10 20
-17 0 -11 38 8 50 12 8 13 13 4 16 -6 3 -10 10 -6 15 3 5 0 9 -7 9 -10 0 -10
3 -1 12 10 10 15 10 22 -2 8 -12 10 -10 10 9 0 14 14 36 36 56 37 34 82 47
159 45 100 -2 144 10 200 55 29 24 78 58 109 75 68 39 111 102 91 135 -17 27
-13 124 6 136 18 11 26 11 34 0 3 -6 -3 -14 -12 -20 -17 -10 -17 -10 0 -11 9
0 17 -4 17 -10 0 -5 5 -10 10 -10 6 0 8 10 4 24 -8 32 12 43 37 20 20 -18 20
-18 -2 -35 l-22 -17 21 -11 c12 -6 22 -18 22 -26 0 -16 16 -20 24 -6 3 5 -1
14 -9 21 -19 16 -19 30 -1 30 7 0 19 7 26 15 10 12 9 15 -8 15 -12 0 -22 9
-25 22 -8 30 -1 35 21 15 15 -13 21 -14 31 -4 10 9 14 8 22 -5 6 -10 15 -18
20 -18 6 0 8 4 5 9 -3 5 3 11 14 14 14 4 20 0 20 -12 0 -17 18 -41 31 -41 4 0
4 15 -1 33 -6 28 -4 33 12 34 10 1 18 -3 18 -8 0 -9 45 -2 65 10 6 3 19 6 30
6 15 0 19 6 18 22 -2 16 2 21 12 17 9 -4 15 0 15 9 0 12 -15 17 -57 21 -32 4
-71 11 -86 16 -16 5 -34 7 -41 4 -7 -3 -19 2 -26 11 -11 13 -9 15 14 15 70 0
229 82 302 156 l31 31 11 -66 c13 -78 4 -130 -23 -145 -11 -6 -22 -12 -24 -13
-2 -2 2 -9 9 -18 7 -8 10 -25 6 -40 -5 -18 -2 -25 9 -25 20 0 19 -19 -2 -27
-14 -5 -13 -8 5 -14 27 -10 27 -16 2 -56 -22 -36 -45 -44 -37 -14 3 14 1 18
-9 14 -16 -6 -18 -19 -4 -28 7 -4 7 -13 0 -26 -7 -11 -16 -17 -23 -12 -7 4 -6
0 2 -10 17 -21 7 -35 -13 -18 -11 10 -16 8 -25 -6 -8 -14 -12 -16 -22 -5 -15
14 -75 16 -84 2 -11 -17 -37 -11 -42 10 -5 19 -14 24 -40 21 -8 -1 -13 11 -13
34 0 40 -15 47 -24 10 -9 -34 -23 -31 -20 4 1 21 -2 28 -11 25 -7 -3 -16 -1
-20 5 -3 6 1 11 11 11 10 0 15 3 12 6 -3 3 -22 2 -41 -1 -32 -6 -34 -9 -32
-38 2 -24 7 -31 20 -29 10 2 14 -1 10 -7 -3 -6 -13 -11 -21 -11 -21 0 -18 -49
4 -57 24 -9 32 -24 25 -50 -4 -17 -1 -23 11 -23 15 0 22 -26 18 -72 -1 -10 3
-18 8 -18 6 0 10 10 10 22 0 12 3 18 7 14 4 -4 6 -22 5 -41 -2 -29 1 -35 18
-35 11 0 20 -7 20 -15 0 -8 11 -17 25 -21 14 -3 25 -10 25 -14 0 -14 -33 -21
-41 -8 -4 7 -11 9 -15 5 -4 -4 2 -17 14 -30 12 -13 22 -28 22 -35 0 -7 7 -9
18 -5 15 6 15 5 3 -10 -9 -11 -10 -17 -2 -17 6 0 11 -7 11 -16 0 -11 -5 -14
-16 -10 -9 3 -20 6 -25 6 -4 0 -6 7 -3 15 4 8 1 15 -5 15 -6 0 -11 -7 -11 -16
0 -9 -9 -18 -19 -21 -11 -3 -21 -14 -23 -26 -3 -19 -4 -19 -19 -5 -12 13 -19
14 -28 5 -6 -6 -11 -7 -11 -3 0 5 -7 3 -15 -4 -13 -10 -15 -9 -15 9 0 12 5 41
11 64 7 28 7 50 0 67 -7 19 -10 21 -10 7 -1 -17 -14 -51 -43 -113 -5 -11 -25
-38 -45 -60 -19 -21 -41 -54 -50 -71 -18 -39 -34 -41 -113 -13 -30 10 -56 17
-58 16 -1 -2 2 -16 8 -31 6 -15 7 -33 2 -39 -7 -11 -8 -116 -1 -145 2 -8 -4
-17 -15 -19 -11 -2 -16 0 -12 6 3 6 2 13 -2 16 -5 3 -14 -6 -20 -19 -8 -18 -8
-26 0 -31 7 -4 14 -2 16 4 5 15 32 16 32 2 0 -5 -7 -10 -15 -10 -8 0 -15 -6
-15 -14 0 -8 -8 -17 -17 -20 -21 -8 -43 18 -43 50 0 13 -4 25 -9 29 -10 6 -36
-16 -44 -37 -4 -10 -7 -11 -18 0 -21 19 -29 14 -29 -18 0 -17 9 -38 23 -51 16
-15 18 -23 9 -26 -10 -4 -10 -8 -2 -19 7 -7 8 -19 4 -26 -4 -7 -9 -24 -10 -37
-2 -14 -8 -27 -14 -29 -5 -2 -10 -12 -10 -23 0 -10 -7 -19 -15 -19 -9 0 -15
-10 -15 -26 0 -14 -7 -42 -16 -60 -13 -28 -14 -40 -6 -60 8 -17 8 -24 1 -24
-6 0 -13 8 -16 19 -3 13 -11 17 -24 14 -23 -6 -25 -28 -4 -37 8 -3 15 -13 15
-23 0 -14 -2 -15 -9 -4 -12 19 -30 5 -24 -18 3 -11 -2 -21 -11 -24 -9 -4 -16
-14 -16 -22 0 -9 -4 -14 -9 -11 -5 3 -11 -3 -14 -14 -3 -11 -1 -18 3 -15 4 3
6 -4 3 -15 -3 -11 0 -20 6 -20 6 0 11 -7 11 -16 0 -8 -4 -13 -9 -9 -5 3 -11 0
-14 -7 -2 -7 -2 -3 0 10 2 17 -1 22 -17 22 -13 0 -19 -6 -18 -17 4 -49 -3
-104 -12 -98 -6 4 -10 12 -9 18 4 32 -4 38 -10 7 -4 -21 -12 -34 -19 -32 -24
5 -44 -26 -37 -58 6 -26 4 -30 -14 -30 -12 0 -21 -6 -21 -12 -1 -20 -37 -58
-55 -58 -9 0 -13 -4 -10 -10 3 -6 -4 -10 -18 -10 -35 0 -73 -40 -68 -72 0 -4
-6 -5 -13 -2 -11 4 -12 13 -5 37 14 48 11 65 -6 33 -8 -15 -15 -35 -15 -42 0
-8 -4 -14 -10 -14 -5 0 -10 9 -10 21 0 15 -5 19 -16 15 -18 -7 -55 30 -79 79
-20 44 -28 45 -20 3 l6 -33 -25 28 c-21 23 -26 25 -26 10 0 -12 -3 -14 -8 -6
-13 20 -84 13 -109 -10 -13 -11 -23 -26 -23 -34 0 -16 -12 -17 -27 -2 -16 16
-63 0 -63 -22 0 -10 5 -19 10 -19 6 0 10 -4 10 -9 0 -12 -43 -1 -52 13 -5 8
-8 7 -8 -1 0 -6 5 -15 10 -18 17 -10 2 -24 -20 -18 -13 3 -20 0 -20 -8 -1 -8
-12 -1 -26 16 l-26 30 7 -29 c6 -27 5 -28 -11 -16 -14 13 -16 12 -12 -5 2 -11
10 -19 16 -18 7 2 12 -6 12 -16 0 -14 -5 -18 -19 -14 -13 3 -21 -2 -26 -16 -3
-12 -13 -21 -21 -21 -8 0 -14 -7 -14 -16 0 -10 6 -14 15 -10 10 4 15 -1 15
-14 0 -34 -1 -35 -21 -33 -11 2 -19 -3 -19 -11 0 -16 27 -29 35 -17 7 12 55
20 61 10 2 -5 18 -6 34 -2 19 3 30 1 30 -6 0 -6 9 -11 20 -11 12 0 20 7 20 16
0 13 3 14 14 5 7 -6 20 -9 29 -5 8 3 18 0 22 -6 5 -8 11 -7 23 2 11 10 16 10
19 1 6 -17 33 -4 33 16 0 20 48 42 76 35 15 -4 20 -11 17 -25 -4 -13 0 -19 11
-19 9 0 16 -4 16 -10 0 -5 -7 -10 -15 -10 -8 0 -15 -5 -15 -10 0 -6 -9 -20
-20 -32 -11 -12 -20 -32 -20 -45 0 -14 -6 -23 -15 -23 -8 0 -15 -5 -15 -12 0
-6 -15 -25 -32 -42 -18 -17 -46 -48 -63 -69 -16 -20 -36 -37 -42 -37 -7 0 -13
-4 -13 -9 0 -4 -27 -38 -60 -74 -33 -36 -60 -71 -60 -78 0 -7 -3 -9 -7 -5 -13
13 -83 -67 -83 -95 0 -15 -4 -31 -10 -34 -15 -9 -12 -25 5 -25 8 0 15 -8 15
-19 0 -27 15 -36 105 -66 109 -37 167 -68 200 -107 50 -59 55 -81 49 -249 -3
-85 -2 -172 3 -194 6 -25 5 -50 -1 -66 -7 -20 -5 -41 9 -84 15 -48 16 -67 7
-109 -34 -163 -37 -170 -53 -160 -5 3 -16 1 -23 -5 -10 -9 -16 -4 -26 20 -16
38 -56 67 -72 51 -6 -6 -17 -8 -24 -5 -8 3 -14 -1 -14 -10 0 -9 8 -18 19 -22
18 -6 71 -91 71 -116 0 -29 21 -86 37 -105 78 -86 133 -375 92 -487 -12 -35
-16 -38 -47 -34 l-33 5 6 -42 c4 -25 18 -53 35 -71 35 -37 51 -76 40 -96 -6
-10 -27 -16 -57 -18 -57 -3 -72 -14 -52 -38 63 -77 93 -185 106 -386 4 -72 8
-89 24 -97 21 -12 49 -60 49 -84 0 -12 -7 -14 -30 -9 -22 4 -36 0 -50 -12 -28
-25 -25 -37 16 -86 48 -58 64 -101 64 -175 0 -35 4 -64 9 -64 5 0 16 15 25 32
l17 33 -5 -30 c-2 -16 -6 -38 -8 -47 -2 -9 2 -17 7 -18 10 -1 18 24 52 152 17
61 18 62 67 23 19 -14 19 -17 4 -67 -9 -29 -22 -87 -28 -128 -7 -48 -17 -79
-27 -88 -23 -17 -29 -16 -51 13 -21 27 -62 34 -62 11 0 -7 7 -31 16 -52 11
-27 14 -53 9 -89 -4 -37 -2 -59 9 -80 24 -45 20 -92 -9 -119 -15 -14 -21 -26
-15 -32 13 -13 41 -166 38 -210 -1 -25 3 -39 15 -45 22 -13 21 -25 -3 -56 -11
-14 -20 -35 -20 -47 0 -11 -16 -41 -35 -65 -20 -25 -38 -54 -40 -65 -6 -28
-32 -167 -55 -301 -32 -180 -39 -218 -51 -261 -12 -38 -10 -43 27 -107 21 -37
46 -80 54 -95 22 -39 62 -76 98 -91 27 -11 98 -96 226 -270 11 -14 38 -46 61
-71 43 -46 126 -181 146 -238 6 -18 16 -32 23 -32 6 0 29 -16 51 -35 22 -20
59 -52 83 -72 24 -20 54 -56 68 -79 24 -40 25 -50 22 -162 l-3 -119 32 24 c34
26 53 24 53 -5 0 -10 9 -35 20 -57 11 -22 20 -48 20 -58 0 -12 14 -24 39 -35
37 -16 74 -65 76 -99 0 -7 4 -12 8 -10 5 1 13 -6 19 -16 5 -10 21 -22 34 -27
24 -9 26 -16 28 -90 1 -14 6 -24 12 -23 7 1 9 -8 6 -22 -2 -14 -8 -25 -12 -25
-16 0 -17 -39 -3 -71 8 -19 19 -43 24 -54 21 -48 37 -115 27 -121 -5 -3 -7
-12 -4 -19 2 -7 -4 -15 -15 -18 -13 -3 -17 -10 -13 -21 4 -9 2 -16 -3 -14 -16
5 -73 -43 -73 -61 0 -13 -2 -13 -9 -2 -7 11 -10 9 -15 -7 -4 -11 -23 -33 -44
-48 -20 -16 -39 -32 -40 -36 -2 -5 -19 -15 -37 -22 -18 -8 -38 -24 -45 -35 -6
-12 -19 -21 -29 -21 -10 0 -24 -7 -31 -15 -7 -8 -23 -15 -36 -15 -13 0 -23 -4
-22 -9 4 -12 -41 -51 -58 -51 -7 0 -18 -9 -24 -20 -6 -10 -16 -17 -23 -15 -16
6 -31 -5 -46 -33 -7 -13 -15 -21 -18 -19 -2 3 -13 -2 -24 -11 -23 -20 -83 -57
-122 -75 -15 -7 -24 -16 -20 -20 3 -4 -3 -7 -15 -7 -11 0 -23 -4 -26 -9 -7
-11 -118 -65 -128 -63 -5 1 -8 -4 -8 -12 0 -8 -14 -17 -32 -21 -37 -7 -60 -16
-188 -73 -25 -11 -60 -23 -77 -27 -18 -4 -33 -11 -33 -16 0 -5 -10 -8 -22 -8
-13 1 -57 -6 -98 -15 -78 -17 -210 -38 -245 -39 -53 -1 -128 15 -208 43 -49
18 -91 29 -94 26 -3 -3 -23 2 -45 11 -41 16 -56 13 -42 -9 5 -7 10 -23 11 -34
3 -22 3 -22 -34 -3 -21 10 -47 19 -58 21 -11 2 -23 7 -27 13 -4 5 -10 6 -14 2
-12 -12 49 -54 156 -107 11 -5 16 -32 20 -111 5 -98 7 -108 44 -174 21 -38 48
-80 59 -93 24 -26 12 -30 -16 -5 -19 17 -19 17 -12 -7 4 -14 14 -32 21 -41 19
-22 17 -46 -4 -58 -25 -13 -42 -75 -42 -148 0 -39 -5 -65 -14 -72 -11 -9 -15
-8 -20 6 -4 10 -1 22 8 28 9 7 15 34 18 83 3 62 1 72 -14 72 -9 0 -20 -5 -23
-10 -3 -6 -15 -10 -26 -10 -11 0 -18 -4 -14 -9 10 -17 -27 -30 -54 -20 -34 14
-79 4 -107 -22 -13 -12 -24 -17 -24 -11 0 7 5 12 10 12 22 0 7 16 -34 37 -24
12 -48 18 -55 14 -7 -5 -31 -4 -54 1 -23 5 -74 13 -112 18 -39 4 -75 9 -80 10
-6 2 -29 2 -52 1 -31 -1 -43 -5 -43 -16 0 -8 -4 -15 -10 -15 -5 0 -10 6 -10
14 0 25 -102 45 -126 25 -11 -9 -14 -9 -14 0 0 7 -4 10 -10 6 -5 -3 -24 0 -42
8 -21 9 -45 11 -68 6 -21 -5 -37 -3 -41 3 -4 7 -9 7 -13 -1 -4 -7 -13 -7 -24
-2 -25 13 -149 33 -212 35 -30 0 -61 5 -69 10 -15 10 -100 20 -241 31 -187 13
-295 28 -316 45 -36 28 -54 49 -54 65 0 9 -9 44 -19 78 -17 53 -48 160 -56
192 -6 23 -9 31 -19 41 -6 7 -14 10 -18 8 -4 -2 -8 8 -10 23 -2 20 -8 27 -21
25 -11 -2 -24 8 -35 27 -9 16 -24 32 -32 36 -29 11 -55 31 -58 45 -4 19 -20
29 -54 37 -16 3 -28 10 -28 16 0 6 -13 22 -28 36 -16 14 -34 35 -40 46 -10 17
-11 17 -12 3 0 -11 -5 -15 -15 -12 -8 4 -22 1 -29 -5 -11 -10 -17 -8 -25 6 -6
10 -11 12 -11 6 0 -7 -7 -13 -16 -13 -28 0 -9 -78 26 -112 17 -15 30 -33 30
-38 0 -6 11 -15 25 -20 14 -5 25 -17 25 -25 0 -9 7 -18 15 -21 8 -4 15 -15 15
-25 0 -10 5 -19 10 -19 6 0 10 -7 10 -15 0 -8 4 -15 10 -15 14 0 42 -58 31
-65 -5 -3 -12 -1 -15 4 -3 4 -29 9 -58 10 -64 1 -108 10 -108 21 0 4 -8 6 -19
3 -10 -3 -22 0 -25 6 -4 6 -21 11 -37 11 -18 0 -28 4 -24 10 3 6 -4 10 -17 10
-13 0 -29 5 -36 12 -9 9 -12 8 -12 -8 -1 -16 -3 -16 -15 6 l-14 25 -10 -25
c-9 -24 -10 -24 -10 -3 -1 27 -18 38 -35 24 -10 -8 -17 -7 -26 4 -10 12 -16
13 -27 4 -10 -9 -23 -9 -53 1 -22 7 -40 17 -40 22 0 4 -9 8 -20 8 -11 0 -20 4
-20 9 0 5 -10 13 -22 16 -13 4 -34 18 -48 30 -27 25 -85 50 -137 59 -18 3 -42
15 -53 26 -26 26 -34 25 -48 -5 -6 -14 -16 -25 -21 -25 -21 0 -41 13 -41 26 0
8 -4 14 -10 14 -5 0 -10 -7 -10 -15 0 -8 5 -15 10 -15 6 0 10 -9 10 -20 0 -13
7 -20 19 -20 12 0 23 -11 30 -30 5 -17 16 -30 24 -30 8 0 19 -11 25 -25 6 -14
19 -25 28 -25 10 0 26 -7 36 -16 14 -14 20 -14 33 -4 20 17 32 5 15 -15 -10
-13 -9 -15 9 -15 11 0 21 -6 21 -12 0 -10 2 -10 9 0 6 10 10 10 21 -3 7 -8 23
-15 36 -15 13 0 24 -4 24 -10 0 -16 30 -12 36 5 4 8 14 15 24 15 21 0 44 -25
35 -40 -4 -6 15 -10 55 -10 38 0 59 -4 55 -10 -3 -6 3 -10 13 -10 11 0 23 -7
26 -16 4 -9 13 -14 21 -10 13 5 19 -8 17 -35 0 -3 8 -10 19 -17 11 -7 19 -8
19 -2 0 5 -4 10 -10 10 -5 0 -10 7 -10 15 0 12 13 8 55 -16 33 -18 64 -29 75
-26 11 3 20 1 20 -4 0 -5 15 -9 33 -9 41 0 51 -8 65 -49 15 -42 15 -41 -3 -41
-8 0 -15 4 -15 8 0 4 -24 9 -52 10 -84 3 -148 13 -148 24 0 5 -4 7 -9 4 -5 -3
-14 1 -21 9 -16 19 -30 19 -30 1 0 -11 -8 -12 -37 -5 -22 5 -39 4 -41 -1 -4
-11 -154 -3 -207 11 -22 6 -62 18 -88 26 -48 15 -82 22 -127 27 -14 1 -32 5
-40 8 -18 8 -71 18 -122 23 -20 2 -49 10 -65 18 -15 8 -43 13 -60 12 -23 -2
-33 2 -33 11 0 11 -10 13 -35 11 -20 -3 -38 0 -41 5 -3 5 -12 7 -20 4 -7 -3
-16 -1 -19 4 -4 6 -17 10 -31 10 -13 0 -24 4 -24 9 0 4 -28 11 -61 15 -34 3
-67 10 -73 15 -6 5 -26 12 -44 16 -24 5 -33 3 -38 -9 -3 -9 -11 -16 -16 -16
-7 0 -7 4 0 13 8 10 -10 13 -91 14 -141 1 -186 5 -184 17 1 5 -14 14 -33 20
-19 6 -47 19 -61 29 -14 9 -47 19 -73 21 -31 3 -52 10 -61 22 -10 14 -14 15
-15 5 0 -12 -3 -11 -17 1 -10 9 -24 13 -30 11 -8 -3 -13 4 -13 15 0 11 -5 22
-10 24 -20 6 -9 253 12 273 6 7 0 91 -8 115 -7 20 -17 161 -17 228 1 40 6 57
19 67 23 16 120 26 301 30 76 1 163 6 193 10 35 4 91 1 154 -9 95 -16 160 -14
172 5 3 5 27 9 53 9 26 0 52 5 58 11 6 6 26 13 45 15 60 6 102 13 158 25 30 6
61 11 68 12 6 0 12 4 12 8 0 4 19 10 43 14 23 3 66 18 94 31 29 14 72 27 95
29 24 2 54 8 68 13 14 5 49 10 79 11 30 0 58 6 62 12 4 6 19 12 35 12 15 0 42
6 60 13 18 8 39 11 47 9 7 -3 24 4 37 15 13 11 35 23 49 27 14 3 32 10 39 16
6 5 12 7 12 3 0 -11 94 41 128 72 18 16 53 35 78 42 24 7 47 17 50 21 3 5 17
9 32 9 15 0 36 6 47 14 32 22 94 37 180 42 46 3 83 10 88 17 6 8 10 8 13 1 2
-6 19 -9 37 -7 22 3 28 2 18 -5 -11 -8 -10 -11 7 -16 26 -9 31 -22 44 -121 12
-95 12 -89 -2 -140 -29 -101 -36 -150 -26 -177 6 -16 13 -28 17 -28 4 0 9 -11
13 -23 5 -23 68 -97 81 -97 12 0 55 -37 49 -42 -9 -10 91 -51 141 -57 49 -6
78 -4 238 21 63 9 82 17 98 36 10 14 19 32 19 41 0 9 12 39 25 66 14 28 25 58
25 67 0 9 10 39 23 67 23 53 52 68 63 34 3 -10 10 -26 15 -35 5 -10 9 -25 9
-33 0 -8 4 -15 9 -15 5 0 19 -39 31 -87 25 -95 37 -343 18 -343 -6 0 -7 -11
-4 -26 4 -14 9 -58 12 -97 2 -40 9 -84 15 -99 13 -32 57 -52 96 -44 35 8 115
84 132 124 12 28 34 55 138 165 44 47 45 50 38 95 -3 26 -21 99 -40 162 -18
63 -54 187 -79 275 -26 88 -51 176 -56 195 -6 19 -19 71 -29 115 -43 182 -134
512 -151 544 -4 9 -16 50 -25 91 -19 86 -48 182 -110 360 -44 128 -90 273
-146 460 -17 58 -39 132 -49 165 -19 59 -83 321 -133 540 -22 95 -57 267 -113
565 -8 41 -21 113 -29 160 -8 47 -22 132 -32 190 -25 150 -25 445 1 555 39
170 162 480 246 620 9 17 28 62 40 100 13 39 34 87 47 107 12 21 23 41 23 44
0 4 16 29 36 56 41 58 40 70 -24 172 -46 74 -56 98 -77 199 -12 55 -15 99 -10
150 6 65 4 77 -19 122 -15 28 -26 67 -26 89 0 43 24 136 47 179 8 15 12 35 8
45 -4 14 2 22 21 31 23 10 26 16 22 44 -3 18 -3 37 -1 44 6 16 127 105 181
133 23 12 42 26 42 31 0 5 3 8 8 7 15 -4 56 15 114 53 33 21 83 45 111 55 29
9 82 32 118 50 37 19 70 34 74 34 3 0 34 13 68 29 34 16 70 32 80 35 11 4 17
16 17 38 l0 33 13 -25 c11 -21 19 -25 52 -22 22 1 125 5 228 8 160 5 186 8
176 20 -6 8 -17 14 -24 14 -7 0 -52 13 -101 29 -49 16 -108 34 -131 40 -50 14
-116 75 -139 129 -9 21 -18 32 -22 26 -4 -6 -17 -16 -30 -23 -20 -11 -23 -9
-32 14 -6 15 -10 30 -10 34 0 14 -224 11 -278 -4 -52 -13 -52 -13 -58 11 -3
13 -3 40 0 58 4 19 2 37 -3 40 -11 7 5 73 23 96 12 15 13 62 2 106 -5 17 -2
24 9 24 8 0 15 7 15 16 0 8 -4 12 -10 9 -16 -10 -33 5 -22 18 22 27 30 85 18
121 -7 20 -15 39 -19 42 -14 14 -7 26 12 21 13 -3 23 3 32 19 13 25 32 34 23
11 -3 -8 2 -20 11 -27 18 -15 20 -37 3 -43 -10 -3 -10 -7 -1 -17 10 -10 14 -8
24 13 7 15 17 23 25 20 11 -4 14 6 14 43 0 32 3 44 9 35 5 -8 7 13 4 53 -5 57
-3 66 11 66 9 0 16 5 16 11 0 6 -7 9 -15 5 -8 -3 -15 -1 -15 4 0 6 7 10 16 10
12 0 14 3 6 13 -6 6 -9 49 -8 95 1 45 -1 82 -5 82 -3 0 -4 26 -3 58 2 31 4 57
4 57 1 0 2 46 3 103 1 56 -1 102 -4 102 -3 0 -4 37 -1 83 7 127 49 201 127
227 46 15 52 9 26 -27 -12 -16 -28 -49 -35 -73 -11 -40 -11 -47 5 -61 16 -16
18 -15 27 5 6 11 16 58 22 104 12 87 64 208 112 259 35 37 98 61 183 69 81 7
209 38 278 68 36 16 37 16 37 -5 0 -11 -19 -39 -42 -60 -35 -34 -42 -48 -46
-90 -3 -32 -1 -49 6 -49 6 0 9 7 6 15 -4 9 4 26 17 39 34 34 49 54 49 64 0 5
14 29 32 53 17 24 32 51 33 59 2 20 26 93 35 105 4 6 10 22 14 38 3 15 11 27
16 27 6 0 10 7 10 15 0 8 4 23 9 33 13 25 41 121 41 142 0 22 39 120 57 141 7
9 11 23 8 31 -4 11 3 17 24 21 20 4 29 11 25 20 -3 8 5 18 18 25 22 10 21 11
-10 11 -43 1 -32 21 11 21 18 0 39 5 47 10 13 8 11 11 -7 16 -34 9 -28 22 14
30 34 6 35 8 17 21 -10 8 -19 18 -19 23 0 6 -3 10 -7 10 -5 0 -15 0 -23 0 -8
0 -15 -7 -15 -15 0 -18 -16 -20 -26 -3 -11 18 34 48 75 49 31 1 33 2 11 8 -22
6 -25 12 -26 60 -1 36 1 49 8 40 7 -10 8 -8 3 8 -6 20 9 54 92 207 13 22 23
47 23 54 0 26 43 70 74 76 19 4 35 15 41 28 6 14 22 25 40 29 l30 5 -44 14
c-23 8 -45 19 -48 26 -2 6 12 44 31 83 20 39 36 79 36 90 0 26 -70 129 -117
172 -53 49 -124 96 -196 130 -59 29 -60 30 -22 24 22 -4 67 -19 100 -34z
m2549 -106 c19 -39 13 -93 -9 -75 -9 8 -14 6 -19 -5 -3 -9 -10 -13 -16 -10 -6
3 -13 0 -16 -9 -3 -8 -12 -12 -20 -9 -8 3 -14 0 -14 -7 0 -7 -7 -10 -15 -6 -8
3 -21 -1 -28 -9 -8 -7 -32 -18 -53 -24 -21 -6 -55 -24 -74 -41 l-35 -30 28 0
c15 0 27 -6 27 -13 0 -16 -29 -57 -40 -57 -5 0 -42 -16 -83 -35 -74 -35 -107
-43 -107 -26 0 5 15 18 33 30 24 16 27 21 13 21 -10 0 -25 -8 -32 -17 -12 -17
-13 -17 -20 1 -5 12 -3 21 4 24 16 5 15 22 -1 22 -21 0 -19 61 1 77 15 11 15
12 -5 13 -26 0 -30 15 -9 35 13 13 274 105 298 105 5 0 3 -7 -6 -15 -8 -8 -19
-15 -25 -15 -6 0 -11 -4 -11 -10 0 -12 0 -12 38 1 25 8 35 7 57 -7 l27 -18 -6
31 c-6 26 -4 31 16 37 13 3 36 6 53 6 22 0 26 3 17 12 -17 17 -15 58 2 58 7 0
21 -16 30 -35z m-1789 -75 c3 -5 -1 -10 -9 -10 -8 0 -18 5 -21 10 -3 6 1 10 9
10 8 0 18 -4 21 -10z m1815 -50 c0 -5 -4 -10 -9 -10 -6 0 -13 5 -16 10 -3 6 1
10 9 10 9 0 16 -4 16 -10z m-1702 -37 c-5 -25 -28 -28 -28 -4 0 12 6 21 16 21
9 0 14 -7 12 -17z m2815 6 c22 2 26 -1 24 -16 -8 -40 -18 -50 -43 -45 -13 2
-31 -1 -39 -8 -25 -20 -37 0 -24 38 6 18 15 29 20 26 5 -3 9 0 9 6 0 6 5 8 12
3 7 -4 25 -6 41 -4z m-2059 -30 c-7 -11 -44 -12 -44 -1 0 4 5 13 12 20 13 13
42 -4 32 -19z m357 11 c-27 -23 -61 -26 -61 -7 0 21 11 27 49 27 l36 -1 -24
-19z m-500 -7 c0 -10 0 -38 0 -63 -1 -36 6 -55 36 -100 32 -46 45 -56 78 -64
52 -11 87 -28 78 -36 -31 -28 -282 -44 -267 -17 5 8 2 7 -10 -2 -15 -13 -18
-12 -23 7 -3 12 -12 22 -19 22 -8 0 -14 10 -14 26 0 14 -4 33 -10 43 -21 40
-21 80 0 98 11 10 28 18 38 18 9 0 18 8 20 19 5 24 52 65 75 66 9 0 17 -8 18
-17z m938 3 c10 -11 8 -16 -9 -21 -26 -8 -35 -1 -27 20 8 19 21 19 36 1z
m1336 -16 c3 -5 1 -10 -4 -10 -6 0 -11 5 -11 10 0 6 2 10 4 10 3 0 8 -4 11
-10z m-1894 -99 c-16 -29 -24 -27 -40 10 -12 27 -12 32 0 40 9 5 20 2 33 -10
15 -15 16 -22 7 -40z m159 47 c0 -7 -12 -22 -27 -34 -16 -12 -25 -25 -22 -28
4 -5 37 -13 62 -15 4 -1 7 -8 7 -16 0 -23 -57 -47 -92 -40 l-30 7 27 28 27 28
-21 18 c-26 22 -27 40 -3 53 24 14 72 14 72 -1z m-1220 -9 c0 -8 5 -7 15 1 9
7 19 10 22 6 9 -8 -17 -58 -32 -63 -12 -3 -37 46 -29 58 8 13 24 11 24 -2z
m-1306 -18 c8 -12 -15 -30 -43 -34 -13 -2 -27 -10 -32 -18 -5 -8 -9 -9 -9 -4
0 6 -4 4 -9 -4 -6 -9 -8 -3 -6 19 1 18 8 36 16 41 18 11 76 12 83 0z m-144
-15 c0 -7 -11 -21 -25 -30 -24 -16 -25 -15 -25 2 0 15 23 35 48 41 1 1 2 -5 2
-13z m765 -46 c3 -5 -1 -10 -9 -10 -9 0 -16 5 -16 10 0 6 4 10 9 10 6 0 13 -4
16 -10z m1750 -165 c-14 -154 -24 -200 -55 -260 -25 -47 -21 -23 11 60 17 46
24 91 29 190 3 72 2 134 -2 140 -4 5 -8 18 -8 29 0 20 0 20 19 1 18 -19 18
-26 6 -160z m-2594 142 c-13 -13 -26 -3 -16 12 3 6 11 8 17 5 6 -4 6 -10 -1
-17z m1509 -7 c0 -5 -5 -10 -11 -10 -5 0 -7 5 -4 10 3 6 8 10 11 10 2 0 4 -4
4 -10z m33 -31 c5 -4 1 -12 -11 -18 -27 -14 -35 -1 -19 32 10 21 13 23 16 9 2
-9 8 -20 14 -23z m-1492 -10 l-10 -24 0 26 c-1 14 2 29 6 33 12 12 14 -9 4
-35z m633 1 c5 -30 16 -47 51 -77 48 -40 55 -61 28 -85 -22 -20 -110 -32 -141
-21 l-24 9 24 30 c37 46 46 67 37 89 -4 11 -8 37 -8 58 -1 52 24 50 33 -3z
m722 24 c19 -5 64 -76 64 -100 0 -4 18 -34 40 -65 22 -32 40 -60 40 -64 0 -15
74 -161 103 -204 17 -24 53 -68 81 -97 57 -58 65 -67 91 -108 15 -23 16 -32 7
-47 -16 -26 -15 -39 4 -39 8 0 12 -5 9 -11 -4 -6 -14 -8 -22 -4 -13 4 -14 3
-3 -10 10 -12 10 -18 -1 -31 -10 -13 -10 -17 1 -24 25 -16 -8 -59 -54 -72 -23
-6 -49 -18 -58 -26 -12 -10 -54 -17 -132 -21 -101 -5 -118 -4 -137 12 -13 10
-30 15 -41 11 -10 -3 -26 0 -34 6 -11 10 -24 10 -59 0 -56 -16 -72 -9 -90 34
-13 30 -28 147 -27 211 0 84 32 253 52 280 7 9 18 71 21 115 0 8 7 56 16 105
15 92 34 142 53 138 5 -2 10 2 10 7 0 11 33 13 66 4z m1526 -17 c16 -24 7 -48
-31 -86 -52 -52 -76 -65 -90 -47 -8 9 -23 11 -51 6 -46 -8 -52 3 -20 37 11 12
27 34 37 50 10 16 29 29 43 31 14 2 30 10 35 18 12 17 64 11 77 -9z m-1211
-23 c15 -14 32 -24 37 -20 5 3 7 -14 5 -42 -3 -31 0 -53 10 -66 14 -19 15 -19
32 -2 18 17 20 16 51 -21 18 -21 33 -42 34 -46 0 -14 44 -46 61 -47 9 0 19
-10 23 -22 14 -54 189 -133 317 -145 44 -4 68 -2 73 6 4 6 20 11 36 11 16 0
40 4 54 10 18 6 26 6 26 -1 0 -6 7 -9 15 -5 26 10 16 -4 -47 -68 -131 -129
-210 -161 -389 -154 -91 4 -114 8 -170 35 -114 53 -228 179 -273 302 -8 23 8
46 26 35 14 -9 8 -26 -7 -20 -8 3 -15 1 -15 -3 0 -14 32 -23 44 -11 5 5 21 10
36 11 25 1 25 1 -4 9 -35 11 -63 36 -84 75 -14 28 -16 28 -23 10 -8 -20 -8
-20 -9 0 -1 11 -3 29 -5 40 -9 49 -12 124 -6 133 24 39 110 36 152 -4z m269
11 c0 -8 -4 -15 -10 -15 -5 0 -10 7 -10 15 0 8 5 15 10 15 6 0 10 -7 10 -15z
m627 -27 c-3 -8 -6 -5 -6 6 -1 11 2 17 5 13 3 -3 4 -12 1 -19z m-2547 -32 c0
-8 -4 -18 -10 -21 -5 -3 -10 3 -10 14 0 12 5 21 10 21 6 0 10 -6 10 -14z
m2920 -21 c0 -8 5 -15 10 -15 6 0 10 5 10 10 0 6 9 10 21 10 11 0 17 -4 14
-10 -6 -10 1 -12 65 -14 26 -1 35 -6 38 -21 3 -11 9 -23 14 -26 6 -4 1 -16
-12 -29 -15 -15 -20 -29 -16 -45 4 -15 1 -25 -9 -29 -22 -8 -18 -25 4 -19 10
3 22 0 25 -5 9 -15 -4 -42 -21 -42 -19 0 -42 -29 -43 -52 0 -9 -5 -18 -11 -20
-9 -3 -9 -10 1 -27 11 -21 10 -23 -4 -18 -8 3 -18 2 -22 -4 -3 -6 -11 -8 -17
-6 -7 2 -37 -13 -67 -34 -30 -21 -56 -36 -58 -34 -10 9 11 45 26 45 13 0 14 2
4 9 -17 10 -62 -9 -62 -26 0 -7 -4 -13 -10 -13 -5 0 -10 -6 -10 -13 0 -8 -10
-22 -21 -33 -22 -19 -22 -19 -14 6 7 22 6 23 -9 11 -9 -7 -16 -9 -16 -3 0 5 7
15 15 22 8 7 12 16 9 22 -3 5 -11 4 -20 -3 -22 -18 -45 12 -38 50 4 17 10 34
14 36 5 3 6 14 3 25 -3 11 -9 17 -14 14 -5 -3 -6 2 -3 10 3 9 17 16 30 16 13
0 24 5 24 10 0 6 -4 10 -10 10 -21 0 -9 21 18 31 18 8 22 13 12 16 -46 14 -45
13 -30 24 13 8 13 11 -2 20 -26 15 -22 27 10 31 20 2 26 8 24 22 -2 10 1 15 7
12 5 -4 12 -2 16 4 4 6 11 8 16 4 5 -3 8 0 7 7 -2 7 7 18 20 24 12 5 22 13 22
17 0 5 9 8 20 8 11 0 20 7 20 15 0 8 5 15 10 15 6 0 10 -7 10 -15z m1360 -6
c65 -40 72 -64 40 -134 -23 -50 -47 -68 -73 -54 -19 11 -20 78 -2 91 6 4 2 8
-7 8 -11 0 -18 8 -18 20 0 13 -5 18 -15 14 -18 -7 -19 -3 -2 27 30 58 28 57
77 28z m180 -120 c-32 -68 -86 -119 -125 -119 -19 0 -20 16 -1 27 17 9 66 79
66 93 0 5 15 25 33 45 29 32 33 33 40 17 6 -13 2 -33 -13 -63z m-2520 36 c20
-38 8 -47 -27 -23 -39 27 -42 42 -9 44 15 1 28 -6 36 -21z m760 -46 c0 -5 -4
-9 -10 -9 -5 0 -10 7 -10 16 0 8 5 12 10 9 6 -3 10 -10 10 -16z m-2604 -80
c43 -86 226 -252 321 -290 l48 -20 -39 5 c-95 12 -248 119 -291 202 -11 22
-29 55 -41 74 -23 38 -39 80 -30 80 3 0 17 -23 32 -51z m2214 31 c0 -5 -7 -10
-15 -10 -8 0 -17 -11 -21 -25 -7 -28 -25 -32 -43 -11 -9 11 -4 18 26 34 44 24
53 26 53 12z m50 -17 c-8 -4 -21 -12 -28 -20 -19 -18 -32 -16 -32 5 0 13 2 14
9 4 7 -11 9 -11 14 2 4 9 17 16 29 15 15 0 18 -3 8 -6z m-165 -23 c3 -5 -1
-10 -9 -10 -9 0 -16 5 -16 10 0 6 4 10 9 10 6 0 13 -4 16 -10z m2031 -25 c-6
-29 -46 -85 -61 -85 -11 0 -4 33 15 69 16 33 29 46 49 50 2 1 0 -15 -3 -34z
m3867 -52 c-7 -2 -19 -2 -25 0 -7 3 -2 5 12 5 14 0 19 -2 13 -5z m-3723 -82
c0 -10 -9 -21 -20 -24 -24 -6 -25 -3 -3 23 21 25 23 25 23 1z m-1522 -82 c-2
-6 -7 -10 -11 -10 -4 1 -15 1 -24 2 -15 0 -15 2 2 9 28 12 37 12 33 -1z m32
-3 c0 -3 -4 -8 -10 -11 -5 -3 -10 -1 -10 4 0 6 5 11 10 11 6 0 10 -2 10 -4z
m-2310 -50 c0 -3 -4 -8 -10 -11 -5 -3 -10 -1 -10 4 0 6 5 11 10 11 6 0 10 -2
10 -4z m-50 -96 c0 -5 -4 -10 -10 -10 -5 0 -10 5 -10 10 0 6 5 10 10 10 6 0
10 -4 10 -10z m1261 -63 c-16 -16 -26 0 -10 19 9 11 15 12 17 4 2 -6 -1 -17
-7 -23z m149 -17 c0 -5 -5 -10 -11 -10 -5 0 -7 5 -4 10 3 6 8 10 11 10 2 0 4
-4 4 -10z m-1013 -92 c-3 -8 -6 -5 -6 6 -1 11 2 17 5 13 3 -3 4 -12 1 -19z
m1116 -12 c21 -16 22 -26 2 -26 -8 0 -19 9 -25 20 -12 23 -3 25 23 6z m35
-191 c-3 -3 -9 2 -12 12 -6 14 -5 15 5 6 7 -7 10 -15 7 -18z m342 -20 c0 -8
-4 -15 -10 -15 -5 0 -10 7 -10 15 0 8 5 15 10 15 6 0 10 -7 10 -15z m-420
-360 c0 -8 -4 -15 -10 -15 -5 0 -7 7 -4 15 4 8 8 15 10 15 2 0 4 -7 4 -15z
m1726 -242 c-11 -11 -19 6 -11 24 8 17 8 17 12 0 3 -10 2 -21 -1 -24z m-2083
-156 c-3 -6 -12 -2 -20 8 -19 27 -16 37 6 18 11 -9 17 -21 14 -26z m-2186
-156 c-3 -14 -1 -35 3 -47 10 -24 3 -64 -11 -64 -5 0 -9 11 -9 25 0 14 -4 25
-9 25 -10 0 -7 96 4 130 8 25 8 24 17 -9 5 -19 7 -46 5 -60z m-89 -16 c-12
-24 -25 -42 -29 -39 -4 2 -10 -4 -12 -13 -3 -12 -5 -10 -6 7 -1 34 36 89 61
90 4 0 -2 -20 -14 -45z m5186 14 c-3 -5 -10 -7 -15 -3 -5 3 -7 10 -3 15 3 5
10 7 15 3 5 -3 7 -10 3 -15z m-94 -3 c0 -8 -4 -17 -9 -21 -12 -7 -24 12 -16
25 9 15 25 12 25 -4z m-96 -15 c3 -5 -1 -14 -8 -20 -16 -13 -32 2 -21 19 8 12
22 13 29 1z m-155 -55 c44 -45 40 -74 -15 -101 -22 -11 -53 -30 -69 -42 -15
-13 -41 -23 -56 -23 -25 0 -29 -4 -29 -29 0 -22 -9 -34 -42 -56 -40 -27 -43
-27 -53 -9 -5 10 -27 36 -47 56 -21 21 -38 41 -38 47 0 18 71 71 95 71 13 0
35 11 49 25 14 14 34 25 44 25 10 0 27 10 38 21 16 19 67 47 85 49 3 0 20 -15
38 -34z m61 9 c0 -8 -7 -15 -15 -15 -8 0 -15 7 -15 15 0 8 7 15 15 15 8 0 15
-7 15 -15z m-407 -255 c16 -19 16 -20 -1 -20 -25 0 -46 16 -38 29 10 16 19 14
39 -9z m-2487 -82 c-3 -7 -9 -21 -12 -30 -4 -10 -10 -18 -15 -18 -13 0 -11 34
3 48 16 16 31 15 24 0z m-2019 -30 c-3 -7 -5 -2 -5 12 0 14 2 19 5 13 2 -7 2
-19 0 -25z m4358 11 c-8 -12 -35 -12 -35 0 0 11 22 20 33 14 4 -2 5 -9 2 -14z
m-4335 -43 c0 -11 -19 -15 -25 -6 -3 5 1 10 9 10 9 0 16 -2 16 -4z m1930 -21
c0 -8 -4 -15 -10 -15 -5 0 -10 7 -10 15 0 8 5 15 10 15 6 0 10 -7 10 -15z
m-49 -18 c-1 -12 -15 -9 -19 4 -3 6 1 10 8 8 6 -3 11 -8 11 -12z m-1891 -17
c0 -11 -7 -20 -15 -20 -13 0 -14 4 -5 20 6 11 13 20 15 20 3 0 5 -9 5 -20z
m4205 11 c7 -12 -12 -24 -25 -16 -11 7 -4 25 10 25 5 0 11 -4 15 -9z m-4195
-87 c0 -8 -9 -14 -21 -14 -11 0 -17 -4 -14 -10 3 -5 4 -10 1 -10 -9 0 -27 40
-22 49 8 13 56 0 56 -15z m4050 -4 c0 -5 -7 -10 -15 -10 -8 0 -15 5 -15 10 0
6 7 10 15 10 8 0 15 -4 15 -10z m-4000 -30 c0 -5 -2 -10 -4 -10 -3 0 -8 5 -11
10 -3 6 -1 10 4 10 6 0 11 -4 11 -10z m1493 -59 c3 -14 0 -17 -14 -14 -20 5
-24 15 -12 26 11 12 21 8 26 -12z m2352 -1 c3 -5 -1 -10 -9 -10 -9 0 -16 5
-16 10 0 6 4 10 9 10 6 0 13 -4 16 -10z m-2295 -48 c0 -7 -4 -10 -10 -7 -5 3
-10 16 -10 28 0 18 2 19 10 7 5 -8 10 -21 10 -28z m-30 -2 c0 -5 -5 -10 -11
-10 -5 0 -7 5 -4 10 3 6 8 10 11 10 2 0 4 -4 4 -10z m2180 -40 c0 -5 -7 -10
-15 -10 -8 0 -15 5 -15 10 0 6 7 10 15 10 8 0 15 -4 15 -10z m-2240 -4 c0 -3
-4 -8 -10 -11 -5 -3 -10 -1 -10 4 0 6 5 11 10 11 6 0 10 -2 10 -4z m-133 -42
c-3 -3 -12 -4 -19 -1 -8 3 -5 6 6 6 11 1 17 -2 13 -5z m2233 -43 c0 -14 -18
-23 -30 -16 -6 4 -8 11 -5 16 8 12 35 12 35 0z m-160 -69 c0 -13 -12 -22 -22
-16 -10 6 -1 24 13 24 5 0 9 -4 9 -8z m-113 -14 c6 -7 13 -26 16 -43 3 -16 9
-38 13 -49 6 -15 4 -17 -14 -12 -33 11 -110 -27 -114 -56 -2 -17 -14 -27 -48
-38 -25 -8 -47 -18 -48 -23 -4 -9 -86 -47 -102 -47 -12 0 -40 59 -40 85 0 20
73 65 105 65 22 0 25 -3 20 -22 -6 -21 -4 -21 19 5 16 17 34 27 46 25 10 -2
20 2 22 7 2 6 -7 11 -20 13 -26 4 -20 22 7 22 10 0 21 9 24 19 5 22 62 61 88
61 9 0 21 -6 26 -12z m3840 -50 c-3 -7 -5 -2 -5 12 0 14 2 19 5 13 2 -7 2 -19
0 -25z m10 -1520 c-3 -7 -5 -2 -5 12 0 14 2 19 5 13 2 -7 2 -19 0 -25z m0
-240 c-2 -13 -4 -5 -4 17 -1 22 1 32 4 23 2 -10 2 -28 0 -40z m-5038 -445
c-12 -21 -28 -45 -34 -53 -31 -39 -134 -220 -247 -435 -38 -71 -66 -121 -63
-110 13 38 57 150 80 205 27 64 37 91 40 105 5 26 30 75 40 75 5 1 33 37 60
81 69 110 185 233 124 132z m-111 -68 c-12 -24 -23 -43 -26 -41 -4 5 36 86 43
86 3 0 -5 -20 -17 -45z m-145 -270 c-3 -9 -8 -14 -10 -11 -3 3 -2 9 2 15 9 16
15 13 8 -4z m-84 -177 c-17 -40 -37 -86 -44 -103 -7 -16 -23 -52 -34 -79 -12
-27 -24 -46 -28 -43 -3 4 10 42 30 84 19 43 49 108 66 146 40 90 48 86 10 -5z
m-145 -342 c-14 -37 -28 -65 -30 -63 -2 2 8 34 22 71 15 37 28 65 31 63 2 -3
-8 -35 -23 -71z m-56 -138 c-6 -18 -13 -27 -15 -21 -4 11 13 53 22 53 2 0 -1
-15 -7 -32z m-6522 -1893 c8 -11 12 -26 9 -33 -3 -8 -2 -19 2 -25 5 -7 9 -21
10 -32 1 -11 5 -33 7 -50 9 -54 9 -60 8 -99 l-2 -39 -26 29 c-16 16 -22 30
-15 32 6 2 11 8 11 13 0 4 -7 6 -15 3 -22 -9 -44 13 -37 38 4 17 2 20 -11 15
-12 -4 -21 2 -32 23 -14 26 -14 29 0 24 26 -10 16 10 -15 31 -16 11 -30 23
-30 28 0 4 -11 7 -24 7 -31 0 -56 28 -35 41 8 5 19 7 25 5 6 -2 16 -1 22 3 6
4 39 6 73 6 48 -1 64 -5 75 -20z m5529 -2796 c11 -17 -1 -21 -15 -4 -8 9 -8
15 -2 15 6 0 14 -5 17 -11z m291 -166 c16 -36 27 -174 12 -150 -13 22 -17 1
-7 -37 6 -20 9 -51 7 -69 -6 -60 -31 91 -32 195 -1 54 0 98 1 98 2 0 10 -17
19 -37z m-2596 -127 c0 -3 -4 -8 -10 -11 -5 -3 -10 -1 -10 4 0 6 5 11 10 11 6
0 10 -2 10 -4z m2599 -283 c-1 -84 5 -109 24 -111 26 -2 84 -28 118 -54 20
-16 42 -28 49 -28 8 0 10 -8 5 -27 -8 -34 -23 -44 -54 -36 -20 5 -23 3 -18
-10 5 -12 -1 -18 -21 -23 -75 -16 -85 -31 -57 -98 8 -19 14 -41 13 -48 -2 -7
7 -17 20 -23 12 -5 22 -13 22 -18 0 -11 -29 7 -71 45 -31 28 -38 43 -48 99
-13 79 -14 194 -1 164 6 -14 9 -3 9 40 1 42 -2 56 -9 45 -14 -22 -13 73 2 121
6 22 13 39 14 39 2 0 4 -35 3 -77z m-249 -228 c7 -9 8 -15 2 -15 -5 0 -12 7
-16 15 -3 8 -4 15 -2 15 2 0 9 -7 16 -15z m-66 -161 c12 -32 6 -54 -14 -54
-16 0 -20 7 -20 35 0 37 22 49 34 19z m20 -110 c10 -27 7 -64 -6 -64 -40 1
-58 13 -58 40 0 27 10 35 46 39 7 0 15 -6 18 -15z m65 -64 c1 -20 -1 -22 -9
-10 -5 8 -9 29 -9 45 0 26 2 27 9 10 5 -11 9 -31 9 -45z m-71 -92 c-2 -27 -7
-32 -23 -30 -25 4 -31 11 -40 40 -6 20 -3 22 30 22 35 0 36 -1 33 -32z m-11
-104 c9 -23 -13 -40 -32 -24 -8 7 -15 19 -15 26 0 19 39 18 47 -2z"/>
<path d="M7630 14669 c0 -11 4 -18 10 -14 5 3 7 12 3 20 -7 21 -13 19 -13 -6z"/>
<path d="M7300 14499 c0 -5 5 -7 10 -4 6 3 10 8 10 11 0 2 -4 4 -10 4 -5 0
-10 -5 -10 -11z"/>
<path d="M7070 13990 c0 -5 5 -10 10 -10 6 0 10 5 10 10 0 6 -4 10 -10 10 -5
0 -10 -4 -10 -10z"/>
<path d="M7130 13950 c0 -5 5 -10 10 -10 6 0 10 5 10 10 0 6 -4 10 -10 10 -5
0 -10 -4 -10 -10z"/>
<path d="M7010 13459 c0 -5 5 -7 10 -4 6 3 10 8 10 11 0 2 -4 4 -10 4 -5 0
-10 -5 -10 -11z"/>
<path d="M7980 13290 c0 -5 7 -10 15 -10 8 0 15 5 15 10 0 6 -7 10 -15 10 -8
0 -15 -4 -15 -10z"/>
<path d="M6946 13271 c-7 -11 18 -33 27 -24 4 3 7 12 7 20 0 15 -26 18 -34 4z"/>
<path d="M6955 13190 c3 -5 8 -10 11 -10 2 0 4 5 4 10 0 6 -5 10 -11 10 -5 0
-7 -4 -4 -10z"/>
<path d="M6770 13076 c0 -2 7 -7 16 -10 8 -3 12 -2 9 4 -6 10 -25 14 -25 6z"/>
<path d="M6932 13045 c-2 -27 16 -33 36 -13 9 9 7 14 -6 24 -24 19 -27 17 -30
-11z"/>
<path d="M7000 13010 c0 -23 13 -26 29 -6 9 11 8 15 -5 20 -23 9 -24 8 -24
-14z"/>
<path d="M6808 12898 c9 -9 15 -9 24 0 9 9 7 12 -12 12 -19 0 -21 -3 -12 -12z"/>
<path d="M8165 14650 c-3 -5 -1 -10 4 -10 6 0 11 5 11 10 0 6 -2 10 -4 10 -3
0 -8 -4 -11 -10z"/>
<path d="M8330 14615 c0 -8 5 -15 10 -15 6 0 10 7 10 15 0 8 -4 15 -10 15 -5
0 -10 -7 -10 -15z"/>
<path d="M8365 14620 c-3 -5 -1 -10 4 -10 6 0 11 5 11 10 0 6 -2 10 -4 10 -3
0 -8 -4 -11 -10z"/>
<path d="M8420 14534 c0 -8 5 -12 10 -9 6 3 10 10 10 16 0 5 -4 9 -10 9 -5 0
-10 -7 -10 -16z"/>
<path d="M8750 13731 c0 -5 5 -13 10 -16 6 -3 10 -2 10 4 0 5 -4 13 -10 16 -5
3 -10 2 -10 -4z"/>
<path d="M8641 13534 c0 -11 3 -14 6 -6 3 7 2 16 -1 19 -3 4 -6 -2 -5 -13z"/>
<path d="M6654 12225 c-9 -19 -21 -35 -26 -35 -5 0 -6 -4 -3 -10 11 -17 29
-10 53 20 12 16 19 35 16 44 -10 25 -22 19 -40 -19z"/>
<path d="M6487 11883 c-4 -3 -7 -11 -7 -17 0 -6 5 -5 12 2 6 6 9 14 7 17 -3 3
-9 2 -12 -2z"/>
<path d="M6635 11660 c-3 -5 -2 -10 4 -10 5 0 13 5 16 10 3 6 2 10 -4 10 -5 0
-13 -4 -16 -10z"/>
<path d="M8175 11480 c3 -5 8 -10 11 -10 2 0 4 5 4 10 0 6 -5 10 -11 10 -5 0
-7 -4 -4 -10z"/>
<path d="M8000 11420 c0 -5 5 -10 11 -10 5 0 7 5 4 10 -3 6 -8 10 -11 10 -2 0
-4 -4 -4 -10z"/>
<path d="M7070 10940 c0 -5 5 -10 10 -10 6 0 10 5 10 10 0 6 -4 10 -10 10 -5
0 -10 -4 -10 -10z"/>
<path d="M7505 10850 c3 -5 8 -10 11 -10 2 0 4 5 4 10 0 6 -5 10 -11 10 -5 0
-7 -4 -4 -10z"/>
<path d="M5387 10484 c-10 -10 -9 -54 2 -54 4 0 5 -18 1 -40 -8 -45 8 -71 29
-46 18 22 10 140 -9 144 -9 1 -19 0 -23 -4z"/>
<path d="M5361 10414 c0 -11 3 -14 6 -6 3 7 2 16 -1 19 -3 4 -6 -2 -5 -13z"/>
<path d="M5405 10270 c-3 -5 3 -10 14 -10 12 0 21 5 21 10 0 6 -6 10 -14 10
-8 0 -18 -4 -21 -10z"/>
<path d="M6859 10238 c-6 -22 -2 -218 6 -230 6 -12 6 -21 -3 -30 -9 -9 -12 -9
-12 0 0 22 -18 12 -22 -13 -3 -13 -1 -22 3 -19 5 3 9 -9 9 -25 0 -17 -4 -31
-9 -31 -5 0 -11 -7 -14 -14 -4 -10 -1 -13 9 -9 8 3 14 -1 14 -8 0 -10 3 -10
14 1 11 11 13 26 7 56 -7 36 -6 41 9 37 14 -4 16 3 14 40 -2 32 3 50 15 64 18
17 18 20 -1 56 -11 21 -20 56 -20 78 0 22 -4 42 -9 45 -5 3 -9 4 -10 2z"/>
<path d="M5567 10021 c3 -12 9 -21 14 -21 14 0 11 16 -5 29 -12 10 -13 8 -9
-8z"/>
<path d="M5530 9995 c-12 -14 -11 -18 1 -26 19 -12 26 -11 35 2 3 6 0 17 -8
25 -13 13 -16 13 -28 -1z"/>
<path d="M6882 9905 c0 -16 2 -22 5 -12 2 9 2 23 0 30 -3 6 -5 -1 -5 -18z"/>
<path d="M6672 9808 c6 -18 48 -21 48 -3 0 9 -10 15 -26 15 -15 0 -24 -5 -22
-12z"/>
<path d="M6835 9807 c-4 -10 -5 -21 -1 -24 10 -10 18 4 13 24 -4 17 -4 17 -12
0z"/>
<path d="M6791 9774 c0 -11 3 -14 6 -6 3 7 2 16 -1 19 -3 4 -6 -2 -5 -13z"/>
<path d="M6520 9766 c0 -2 9 -6 20 -9 11 -3 20 -1 20 4 0 5 -9 9 -20 9 -11 0
-20 -2 -20 -4z"/>
<path d="M6766 9745 c4 -8 8 -15 10 -15 2 0 4 7 4 15 0 8 -4 15 -10 15 -5 0
-7 -7 -4 -15z"/>
<path d="M6855 9750 c3 -5 8 -10 11 -10 2 0 4 5 4 10 0 6 -5 10 -11 10 -5 0
-7 -4 -4 -10z"/>
<path d="M5280 9600 c0 -5 9 -10 20 -10 11 0 20 5 20 10 0 6 -9 10 -20 10 -11
0 -20 -4 -20 -10z"/>
<path d="M5200 9544 c0 -8 5 -12 10 -9 6 4 8 11 5 16 -9 14 -15 11 -15 -7z"/>
<path d="M5220 9466 c0 -9 30 -14 35 -6 4 6 -3 10 -14 10 -12 0 -21 -2 -21 -4z"/>
<path d="M6195 9389 c-10 -15 3 -25 16 -12 7 7 7 13 1 17 -6 3 -14 1 -17 -5z"/>
<path d="M5357 9363 c-12 -11 -8 -23 8 -23 8 0 15 7 15 15 0 16 -12 20 -23 8z"/>
<path d="M5372 9313 c-6 -2 -10 -9 -6 -14 8 -14 21 -11 28 6 6 15 1 17 -22 8z"/>
<path d="M5740 1480 c0 -5 5 -10 11 -10 5 0 7 5 4 10 -3 6 -8 10 -11 10 -2 0
-4 -4 -4 -10z"/>
<path d="M8780 12632 c-23 -19 -19 -52 7 -52 10 0 12 6 8 21 -5 14 -1 25 12
34 10 8 13 15 7 15 -7 0 -22 -8 -34 -18z"/>
<path d="M8584 12518 c-11 -17 6 -22 22 -7 13 14 13 16 -1 16 -9 0 -18 -4 -21
-9z"/>
<path d="M7386 12291 c-3 -4 1 -17 9 -27 8 -10 15 -30 15 -44 0 -44 59 -63 74
-24 4 11 0 13 -21 8 -18 -5 -24 -4 -19 5 4 6 14 11 22 11 8 0 14 10 14 25 0
29 -7 31 -32 8 -16 -14 -21 -15 -28 -4 -4 8 -6 20 -4 26 6 14 -23 29 -30 16z"/>
<path d="M7520 12080 c0 -5 4 -10 9 -10 6 0 13 5 16 10 3 6 -1 10 -9 10 -9 0
-16 -4 -16 -10z"/>
<path d="M7450 12012 c0 -5 9 -17 20 -27 11 -10 20 -15 20 -12 0 4 -9 16 -20
27 -11 11 -20 16 -20 12z"/>
<path d="M8650 12084 c0 -8 5 -12 10 -9 6 3 10 10 10 16 0 5 -4 9 -10 9 -5 0
-10 -7 -10 -16z"/>
<path d="M8653 12016 c-7 -8 -18 -16 -25 -19 -7 -2 -10 -7 -7 -11 10 -11 59
13 59 29 0 18 -11 19 -27 1z"/>
<path d="M8760 12010 c0 -13 5 -20 13 -17 6 2 12 10 12 17 0 7 -6 15 -12 18
-8 2 -13 -5 -13 -18z"/>
<path d="M8860 12020 c0 -5 5 -10 10 -10 6 0 10 5 10 10 0 6 -4 10 -10 10 -5
0 -10 -4 -10 -10z"/>
<path d="M8851 11982 c-28 -10 -48 -38 -40 -58 7 -18 8 -18 15 4 3 12 12 22
19 22 7 0 16 7 19 16 8 20 5 23 -13 16z"/>
<path d="M8780 11964 c0 -8 5 -12 10 -9 6 3 10 10 10 16 0 5 -4 9 -10 9 -5 0
-10 -7 -10 -16z"/>
<path d="M8770 11920 c0 -11 7 -20 15 -20 8 0 15 9 15 20 0 11 -7 20 -15 20
-8 0 -15 -9 -15 -20z"/>
<path d="M10026 10231 c-4 -7 -5 -15 -2 -18 9 -9 19 4 14 18 -4 11 -6 11 -12
0z"/>
<path d="M9952 10160 c0 -14 2 -19 5 -12 2 6 2 18 0 25 -3 6 -5 1 -5 -13z"/>
<path d="M9814 10054 c-10 -15 -13 -29 -8 -34 12 -11 69 35 60 49 -12 19 -35
12 -52 -15z"/>
<path d="M8492 9338 c-24 -24 -14 -37 18 -21 17 8 28 19 25 24 -8 13 -29 11
-43 -3z"/>
<path d="M8260 9191 c-5 -11 -10 -26 -10 -35 0 -23 21 -31 32 -12 5 9 13 14
19 11 19 -12 22 28 4 41 -25 19 -32 18 -45 -5z"/>
<path d="M6145 611 c-3 -11 -2 -28 3 -36 8 -15 10 -15 21 -1 15 17 11 48 -6
53 -6 2 -14 -5 -18 -16z"/>
<path d="M12788 11700 c-5 -34 1 -44 17 -26 8 8 7 18 -1 34 -11 23 -12 23 -16
-8z"/>
<path d="M12791 11254 c0 -11 3 -14 6 -6 3 7 2 16 -1 19 -3 4 -6 -2 -5 -13z"/>
<path d="M1354 632 c-13 -9 -36 -72 -26 -73 4 0 30 0 58 1 29 1 55 -3 59 -9
11 -19 25 -12 25 14 0 51 -76 94 -116 67z"/>
<path d="M1637 342 c-17 -19 -23 -51 -9 -53 118 -10 134 -9 128 7 -3 8 -6 20
-6 25 0 12 -54 39 -78 39 -10 0 -26 -8 -35 -18z"/>
<path d="M1920 287 c-14 -7 -26 -20 -28 -28 -2 -13 10 -17 65 -22 37 -3 69 -4
71 -3 9 9 -14 37 -43 50 -39 19 -34 19 -65 3z"/>
<path d="M2192 220 c-11 -30 -2 -110 13 -110 7 0 25 16 39 35 34 44 74 47 129
10 42 -29 43 -28 23 20 -19 44 -41 55 -126 60 -63 3 -72 2 -78 -15z"/>
<path d="M1706 129 c-54 -20 -82 -41 -89 -70 -7 -27 7 -32 52 -18 28 8 48 9
68 1 25 -8 31 -7 41 9 7 10 12 32 12 49 0 42 -24 51 -84 29z"/>
<path d="M1890 92 c0 -12 32 -55 55 -74 24 -21 107 -25 99 -5 -2 6 -31 29 -63
50 -56 35 -91 46 -91 29z"/>
</g>
</svg>
